<?xml version="1.0" ?><svg width="40" height="40" viewBox="0 0 64 64" xmlns="http://www.w3.org/2000/svg"><g data-name="Video conferencing" id="Video_conferencing"><path d="M21,24h0a2,2,0,0,1,2,2v2a0,0,0,0,1,0,0H19a0,0,0,0,1,0,0V26A2,2,0,0,1,21,24Z" style="fill:#000"/><circle cx="21" cy="22" r="2" style="fill:#000"/><path d="M15,22h0a2,2,0,0,1,2,2v2a0,0,0,0,1,0,0H13a0,0,0,0,1,0,0V24A2,2,0,0,1,15,22Z" style="fill:#000"/><circle cx="15" cy="20" r="2" style="fill:#000"/><rect height="16" rx="2" style="fill:none;stroke:#000;stroke-linejoin:round;stroke-width:2px" width="16" x="10" y="15"/><path d="M56,8H48.46a9,9,0,0,1-.37,4H56a2,2,0,0,1,2,2V46a2,2,0,0,1-2,2H8a2,2,0,0,1-2-2V14a2,2,0,0,1,2-2H32.47A11.42,11.42,0,0,1,32,9a5.47,5.47,0,0,1,.09-1H8a6,6,0,0,0-6,6V46a6,6,0,0,0,6,6H56a6,6,0,0,0,6-6V14A6,6,0,0,0,56,8Z" style="fill:#000"/><path d="M61,55v2a4,4,0,0,1-4,4H7a4,4,0,0,1-4-4V55H22v2H42V55Z" style="fill:none;stroke:#000;stroke-linejoin:round;stroke-width:2px"/><path d="M38,27H30a4,4,0,0,0-4,4V50" style="fill:none;stroke:#000;stroke-linejoin:round;stroke-width:2px"/><path d="M42,23v4a2,2,0,0,1-4,0V23" style="fill:none;stroke:#000;stroke-linejoin:round;stroke-width:2px"/><line style="fill:none;stroke:#000;stroke-linejoin:round;stroke-width:2px" x1="50" x2="50" y1="36" y2="50"/><line style="fill:none;stroke:#000;stroke-linejoin:round;stroke-width:2px" x1="30" x2="30" y1="50" y2="36"/><polyline points="40 29 37.27 32.41 36 34 35 27" style="fill:none;stroke:#000;stroke-linecap:round;stroke-linejoin:round;stroke-width:2px"/><polyline points="40 29 42.73 32.41 44 34 45 27" style="fill:none;stroke:#000;stroke-linecap:round;stroke-linejoin:round;stroke-width:2px"/><polyline points="43 32 42.73 32.41 41 35 43 46 40 49 37 46 39 35 37.27 32.41 37 32" style="fill:none;stroke:#000;stroke-linejoin:round;stroke-width:2px"/><path d="M42,27h8a4,4,0,0,1,4,4V50" style="fill:none;stroke:#000;stroke-linejoin:round;stroke-width:2px"/><path d="M45,15V13c-1.66,0-2-1.34-2-3-1,3-7,3-7,3a1,1,0,0,0-1,1v5a4.14,4.14,0,0,0,.11,1A5,5,0,0,0,38,23.59a5.08,5.08,0,0,0,4,0A5,5,0,0,0,44.89,20,4.14,4.14,0,0,0,45,19V15Z" style="fill:none;stroke:#000;stroke-linejoin:round;stroke-width:2px"/><path d="M35,15H34a2,2,0,0,0,0,4h1" style="fill:none;stroke:#000;stroke-linejoin:round;stroke-width:2px"/><path d="M45,15h1.2a2,2,0,0,1-.2,4H45" style="fill:none;stroke:#000;stroke-linejoin:round;stroke-width:2px"/><path d="M34,15c-1.23-1.1-2-4.22-2-6a6,6,0,0,1,6-6,13.38,13.38,0,0,1,5,1,7.74,7.74,0,0,0,3,1s5,1,1,10" style="fill:none;stroke:#000;stroke-linejoin:round;stroke-width:2px"/></g></svg>