<svg width="41" height="40" viewBox="0 0 41 40" fill="none" xmlns="http://www.w3.org/2000/svg">
<g clip-path="url(#clip0_31_1002)">
<path fill-rule="evenodd" clip-rule="evenodd" d="M18.1128 3.2341H14.2942V6.02861H15.726C15.9895 6.02861 16.203 6.2366 16.203 6.49404C16.203 6.75084 15.9895 6.95947 15.726 6.95947L14.2942 6.95966V8.82212H15.726C15.9895 8.82212 16.203 9.03093 16.203 9.28755C16.203 9.54508 15.9895 9.75344 15.726 9.75344L14.2942 9.75362V11.6164H15.726C15.9895 11.6164 16.203 11.8243 16.203 12.0818C16.203 12.3386 15.9895 12.5472 15.726 12.5472L14.2942 12.5474V14.4099L15.726 14.4097C15.9895 14.4097 16.203 14.6185 16.203 14.8756C16.203 15.1326 15.9895 15.341 15.726 15.341L14.2942 15.3412V17.2039H15.726C15.9895 17.2039 16.203 17.4123 16.203 17.6694C16.203 17.9264 15.9895 18.1348 15.726 18.1348L14.2942 18.135V19.9977H15.726C15.9895 19.9977 16.203 20.2061 16.203 20.4636C16.203 20.7204 15.9895 20.929 15.726 20.929L14.2942 20.9292V23.723H18.1128C18.1128 16.8933 18.1128 10.0638 18.1128 3.2341Z" fill="black"/>
<path fill-rule="evenodd" clip-rule="evenodd" d="M25.7507 21.2566V18.1373H22.8861V21.2566L24.3185 23.3522L25.7507 21.2566Z" fill="black"/>
<path fill-rule="evenodd" clip-rule="evenodd" d="M19.0747 9.75003H21.9335V11.6016H19.0747V9.75003Z" fill="black"/>
<path fill-rule="evenodd" clip-rule="evenodd" d="M25.7508 6.96057H22.8862V17.2058H25.7508C25.7508 13.7907 25.7508 10.3756 25.7508 6.96057Z" fill="black"/>
<path fill-rule="evenodd" clip-rule="evenodd" d="M25.7508 4.63177C25.7508 3.86101 25.1085 3.23438 24.3186 3.23438C23.529 3.23438 22.8862 3.86101 22.8862 4.63177V6.02908H25.7508L25.7508 4.63177Z" fill="black"/>
<path fill-rule="evenodd" clip-rule="evenodd" d="M2.35995 33.04H-0.00012207C0.238316 35.1327 2.06202 36.7659 4.2702 36.7659H36.7301C38.9378 36.7659 40.7616 35.1327 40.9999 33.04H38.6398H2.35995Z" fill="black"/>
<path fill-rule="evenodd" clip-rule="evenodd" d="M38.1616 11.2136C38.1616 10.4087 37.4913 9.75464 36.6666 9.75464H26.7053V11.6174L35.7755 11.6176C36.0386 11.6176 36.2526 11.8255 36.2526 12.083V29.7799C36.2526 30.0371 36.0385 30.2458 35.7755 30.2458H5.2243C4.9607 30.2458 4.74723 30.037 4.74723 29.7799V12.083C4.74723 11.8255 4.96089 11.6176 5.2243 11.6176H13.3393V9.75473L4.33295 9.75464C3.50783 9.75464 2.83716 10.409 2.83716 11.2136V32.109H38.1616L38.1616 11.2136Z" fill="black"/>
<path fill-rule="evenodd" clip-rule="evenodd" d="M13.3394 12.5489H9.52079V22.3287C9.52079 22.5859 9.30665 22.7942 9.04363 22.7942C8.77974 22.7942 8.56618 22.5858 8.56618 22.3287V12.5489H5.7019V29.3148H31.4792V22.3292C31.4792 22.072 31.6932 21.8638 31.9562 21.8638C32.2201 21.8638 32.4333 22.0721 32.4333 22.3292V29.3148H35.2978V12.5489H26.7053V21.3977C26.7053 21.4894 26.6773 21.5796 26.6253 21.6561L24.716 24.4498C24.5277 24.7246 24.11 24.7248 23.9218 24.4498L22.0127 21.6561C21.9603 21.5796 21.9324 21.4894 21.9324 21.3977V12.5489H19.0683V24.1915C19.0683 24.449 18.8546 24.6574 18.5912 24.6574L13.8178 24.6575C13.5538 24.6575 13.3403 24.4491 13.3403 24.1917L13.3394 12.5489ZM31.9563 18.6027C32.4834 18.6027 32.911 19.0198 32.911 19.5345C32.911 20.0492 32.4839 20.4663 31.9563 20.4663C31.4287 20.4663 31.0015 20.0492 31.0015 19.5345C31.0015 19.0198 31.4289 18.6027 31.9563 18.6027ZM9.04353 26.0548C8.51644 26.0548 8.08846 25.638 8.08846 25.1234C8.08846 24.6087 8.51596 24.1912 9.04353 24.1912C9.5711 24.1912 9.99823 24.6087 9.99823 25.1234C9.99823 25.638 9.57082 26.0548 9.04353 26.0548Z" fill="black"/>
</g>
<defs>
<clipPath id="clip0_31_1002">
<rect width="41" height="40" fill="white"/>
</clipPath>
</defs>
</svg>
