<?xml version="1.0" ?><svg width="41" height="41" style="enable-background:new 0 0 16 16;" version="1.1" viewBox="0 0 16 16" xml:space="preserve" xmlns="http://www.w3.org/2000/svg" xmlns:xlink="http://www.w3.org/1999/xlink"><g id="Guide"/><g id="Layer_2"><g><path d="M6,6c0-0.93-0.64-1.71-1.5-1.93V2.5C4.5,2.22,4.28,2,4,2S3.5,2.22,3.5,2.5v1.57C2.64,4.29,2,5.07,2,6s0.64,1.71,1.5,1.93    v5.57C3.5,13.78,3.72,14,4,14s0.5-0.22,0.5-0.5V7.93C5.36,7.71,6,6.93,6,6z M4,7C3.45,7,3,6.55,3,6s0.45-1,1-1s1,0.45,1,1    S4.55,7,4,7z"/><path d="M8.5,9.07V2.5C8.5,2.22,8.28,2,8,2S7.5,2.22,7.5,2.5v6.57C6.64,9.29,6,10.07,6,11s0.64,1.71,1.5,1.93v0.57    C7.5,13.78,7.72,14,8,14s0.5-0.22,0.5-0.5v-0.57c0.86-0.22,1.5-1,1.5-1.93S9.36,9.29,8.5,9.07z M8,12c-0.55,0-1-0.45-1-1    s0.45-1,1-1s1,0.45,1,1S8.55,12,8,12z"/><path d="M14,5c0-0.93-0.64-1.71-1.5-1.93V2.5C12.5,2.22,12.28,2,12,2s-0.5,0.22-0.5,0.5v0.57C10.64,3.29,10,4.07,10,5    s0.64,1.71,1.5,1.93v6.57c0,0.28,0.22,0.5,0.5,0.5s0.5-0.22,0.5-0.5V6.93C13.36,6.71,14,5.93,14,5z M12,6c-0.55,0-1-0.45-1-1    s0.45-1,1-1s1,0.45,1,1S12.55,6,12,6z"/></g></g></svg>