<svg id="Group_26727" data-name="Group 26727" xmlns="http://www.w3.org/2000/svg" xmlns:xlink="http://www.w3.org/1999/xlink" width="22.232" height="22.196" viewBox="0 0 22.232 22.196">
  <defs>
    <clipPath id="clip-path">
      <rect id="Rectangle_1605" data-name="Rectangle 1605" width="22.232" height="22.196" fill="#fff"/>
    </clipPath>
  </defs>
  <g id="Group_26727-2" data-name="Group 26727" clip-path="url(#clip-path)">
    <path id="Path_68044" data-name="Path 68044" d="M6.4,37.614a19.681,19.681,0,0,0,6.035,6.039c.344-.349.689-.7,1.032-1.048a2.218,2.218,0,0,1,3.132-.062c.73.707,1.451,1.424,2.152,2.161a2.142,2.142,0,0,1,.114,2.919,12.45,12.45,0,0,1-1.59,1.537,4.255,4.255,0,0,1-2.6.868,9.279,9.279,0,0,1-4.164-.943A19.143,19.143,0,0,1,4.1,44.278,17.743,17.743,0,0,1,.754,39.061,9.4,9.4,0,0,1,0,35.452,4.533,4.533,0,0,1,1.283,32.3c.305-.326.628-.635.949-.946a2.2,2.2,0,0,1,3.184,0q1.042,1.016,2.061,2.056a2.2,2.2,0,0,1,.018,3.134c-.35.366-.724.711-1.092,1.071" transform="translate(0 -27.835)" fill="#fff"/>
    <path id="Path_68045" data-name="Path 68045" d="M124.1,10.773a4.065,4.065,0,0,1-.032.559.736.736,0,0,1-1.456-.192,9.4,9.4,0,0,0-1.29-4.842,9.413,9.413,0,0,0-6.763-4.682,12.913,12.913,0,0,0-1.514-.136.759.759,0,0,1-.785-.759A.736.736,0,0,1,113.052,0a10.93,10.93,0,0,1,8.663,4.243,10.773,10.773,0,0,1,2.267,5.3c.064.433.083.872.116,1.234" transform="translate(-101.866 0)" fill="#fff"/>
    <path id="Path_68046" data-name="Path 68046" d="M124.4,56.27a2.556,2.556,0,0,1-.079.438.733.733,0,0,1-1.414-.252,4.516,4.516,0,0,0-4.379-4.539.744.744,0,1,1,.021-1.481,5.916,5.916,0,0,1,5.747,4.97c.043.281.069.564.1.863" transform="translate(-106.83 -45.767)" fill="#fff"/>
  </g>
</svg>
