<svg xmlns="http://www.w3.org/2000/svg" xmlns:xlink="http://www.w3.org/1999/xlink" width="44" height="44" viewBox="0 0 44 44">
  <defs>
    <clipPath id="clip-path">
      <rect id="Rectangle_60" data-name="Rectangle 60" width="16.292" height="16.266" fill="#fff"/>
    </clipPath>
  </defs>
  <g id="Group_116905" data-name="Group 116905" transform="translate(-80 -28)">
    <rect id="Rectangle_59" data-name="Rectangle 59" width="44" height="44" rx="22" transform="translate(80 28)" fill="#1D8EA9"/>
    <g id="Group_51" data-name="Group 51" transform="translate(94 42)">
      <g id="Group_50" data-name="Group 50" clip-path="url(#clip-path)">
        <path id="Path_33" data-name="Path 33" d="M4.692,35.76a14.423,14.423,0,0,0,4.422,4.425c.252-.256.5-.511.756-.768a1.626,1.626,0,0,1,2.3-.046c.535.518,1.063,1.044,1.577,1.583a1.57,1.57,0,0,1,.084,2.139,9.123,9.123,0,0,1-1.165,1.126,3.118,3.118,0,0,1-1.9.636,6.8,6.8,0,0,1-3.052-.691A14.028,14.028,0,0,1,3,40.644,13,13,0,0,1,.553,36.82,6.89,6.89,0,0,1,0,34.175a3.322,3.322,0,0,1,.94-2.307c.224-.239.46-.466.7-.693a1.614,1.614,0,0,1,2.333,0q.764.744,1.51,1.506a1.613,1.613,0,0,1,.013,2.3c-.257.268-.53.521-.8.785" transform="translate(0.001 -28.594)" fill="#fff"/>
        <path id="Path_34" data-name="Path 34" d="M120.935,7.895a2.98,2.98,0,0,1-.023.41.54.54,0,0,1-1.067-.141,6.891,6.891,0,0,0-.945-3.548,6.9,6.9,0,0,0-4.956-3.431,9.463,9.463,0,0,0-1.109-.1.556.556,0,0,1-.575-.556A.539.539,0,0,1,112.84,0a8.01,8.01,0,0,1,6.348,3.109A7.9,7.9,0,0,1,120.85,6.99c.047.317.061.639.085.9" transform="translate(-104.642 0)" fill="#fff"/>
        <path id="Path_35" data-name="Path 35" d="M122.617,54.712a1.87,1.87,0,0,1-.058.321.537.537,0,0,1-1.036-.185,3.309,3.309,0,0,0-3.209-3.326.545.545,0,1,1,.015-1.085,4.336,4.336,0,0,1,4.212,3.642c.031.206.05.414.076.633" transform="translate(-109.742 -47.015)" fill="#fff"/>
      </g>
    </g>
  </g>
</svg>
