<svg xmlns="http://www.w3.org/2000/svg" width="16.001" height="16" viewBox="0 0 16.001 16">
  <path id="Icon_ionic-ios-call" data-name="Icon ionic-ios-call" d="M20.029,17.031a13.44,13.44,0,0,0-2.808-1.879c-.841-.4-1.15-.4-1.745.033-.5.358-.816.691-1.387.567A8.275,8.275,0,0,1,11.3,13.69,8.215,8.215,0,0,1,9.24,10.9c-.121-.575.212-.891.567-1.387.429-.6.442-.9.033-1.745A13.174,13.174,0,0,0,7.962,4.963c-.612-.612-.75-.479-1.087-.358a6.187,6.187,0,0,0-1,.529A3,3,0,0,0,4.683,6.4c-.237.512-.512,1.466.887,3.957a22.081,22.081,0,0,0,3.882,5.178h0l0,0,0,0h0a22.167,22.167,0,0,0,5.178,3.882c2.491,1.4,3.445,1.125,3.957.887a2.952,2.952,0,0,0,1.262-1.2,6.187,6.187,0,0,0,.529-1C20.508,17.781,20.646,17.643,20.029,17.031Z" transform="translate(-4.49 -4.502)" fill="#848484"/>
</svg>
