<svg width="24" height="24" viewBox="0 0 24 24" fill="none" xmlns="http://www.w3.org/2000/svg">
<g id="instagram">
<path id="Vector" d="M17 2H7C4.23858 2 2 4.23858 2 7V17C2 19.7614 4.23858 22 7 22H17C19.7614 22 22 19.7614 22 17V7C22 4.23858 19.7614 2 17 2Z" fill="white"/>
<path id="Vector_2" d="M16.0036 11.3703C16.127 12.2025 15.9849 13.0525 15.5974 13.7993C15.2099 14.5461 14.5968 15.1517 13.8452 15.53C13.0937 15.9082 12.2421 16.0399 11.4114 15.9062C10.5807 15.7726 9.81337 15.3804 9.21845 14.7855C8.62353 14.1905 8.23135 13.4232 8.09768 12.5925C7.96402 11.7619 8.09568 10.9102 8.47394 10.1587C8.8522 9.40716 9.4578 8.79404 10.2046 8.40654C10.9514 8.01904 11.8014 7.87689 12.6336 8.0003C13.4825 8.12619 14.2685 8.52176 14.8753 9.12861C15.4822 9.73545 15.8777 10.5214 16.0036 11.3703Z" stroke="black" stroke-width="2" stroke-linecap="round" stroke-linejoin="round"/>
<path id="Vector_3" d="M17.5 6.5H17.51" stroke="black" stroke-width="2" stroke-linecap="round" stroke-linejoin="round"/>
</g>
</svg>
