<svg width="56" height="56" viewBox="0 0 56 56" fill="none" xmlns="http://www.w3.org/2000/svg">
<circle opacity="0.05" cx="28" cy="28" r="28" transform="matrix(-1 0 0 1 56 0)" fill="black"/>
<path fill-rule="evenodd" clip-rule="evenodd" d="M27.6652 20.5486C27.5569 20.4452 27.4282 20.3631 27.2865 20.3071C27.1449 20.2511 26.993 20.2223 26.8396 20.2223C26.6862 20.2223 26.5343 20.2511 26.3926 20.3071C26.251 20.3631 26.1223 20.4452 26.014 20.5486L19.0171 27.2139C18.9085 27.3171 18.8223 27.4396 18.7635 27.5746C18.7047 27.7096 18.6745 27.8542 18.6745 28.0004C18.6745 28.1465 18.7047 28.2912 18.7635 28.4261C18.8223 28.5611 18.9085 28.6837 19.0171 28.7869L26.014 35.4521C26.2329 35.6607 26.5299 35.7778 26.8396 35.7778C27.1493 35.7778 27.4462 35.6607 27.6652 35.4521C27.8842 35.2435 28.0072 34.9606 28.0072 34.6656C28.0072 34.3706 27.8842 34.0877 27.6652 33.8791L21.4916 28.0004L27.6652 22.1216C27.7738 22.0184 27.86 21.8959 27.9188 21.7609C27.9776 21.6259 28.0078 21.4813 28.0078 21.3351C28.0078 21.189 27.9776 21.0443 27.9188 20.9094C27.86 20.7744 27.7738 20.6518 27.6652 20.5486Z" fill="#46A3AB"/>
<path fill-rule="evenodd" clip-rule="evenodd" d="M37.3359 28.0003C37.3359 27.5877 37.2158 27.192 37.0018 26.9003C36.7879 26.6086 36.4977 26.4447 36.1952 26.4447H21.3656C21.063 26.4447 20.7729 26.6086 20.5589 26.9003C20.345 27.192 20.2248 27.5877 20.2248 28.0003C20.2248 28.4128 20.345 28.8085 20.5589 29.1002C20.7729 29.3919 21.063 29.5558 21.3656 29.5558H36.1952C36.4977 29.5558 36.7879 29.3919 37.0018 29.1002C37.2158 28.8085 37.3359 28.4128 37.3359 28.0003Z" fill="#46A3AB"/>
</svg>
