<svg width="317" height="64" viewBox="0 0 317 64" fill="none" xmlns="http://www.w3.org/2000/svg">
<g clip-path="url(#clip0_1_10)">
<g clip-path="url(#clip1_1_10)">
<path d="M100.069 20.1319H93.3299V26.1108H91.6448V18.4468H110.33V26.1045H108.795V20.1256H101.906V41.5757H106.041V42.954H96.0865V41.5757H100.069V20.1319Z" fill="#071D49"/>
<path d="M112.168 41.5757H114.925V19.8251H112.168V18.4468H116.763V28.0964C117.167 27.0702 117.893 26.2024 118.832 25.6228C119.771 25.0431 120.872 24.7827 121.97 24.8804C125.646 24.8804 127.331 27.0249 127.331 31.4666V41.5757H129.935V42.954H122.583V41.5757H125.493V31.465C125.493 27.7896 124.115 26.2571 121.358 26.2571C118.602 26.2571 116.764 28.8611 116.764 32.8433V41.5757H119.521V42.954H112.168V41.5757Z" fill="#071D49"/>
<path d="M144.486 32.9959C144.329 28.8611 142.495 26.2571 138.979 26.2571C135.916 26.2571 133.771 29.0137 133.472 32.9959H144.486ZM133.458 34.5269C133.458 39.1212 135.602 42.0319 139.122 42.0319C140.377 42.1322 141.622 41.7409 142.594 40.9406C143.565 40.1403 144.188 38.9937 144.33 37.7429H146.015C145.867 39.3979 145.081 40.9305 143.823 42.0168C142.566 43.1031 140.935 43.658 139.276 43.5644C134.068 43.5644 131.771 39.7348 131.771 34.2216C131.771 28.8611 134.223 24.8788 139.276 24.8788C144.484 24.8788 146.475 29.6273 146.475 34.5284L133.458 34.5269Z" fill="#071D49"/>
<path d="M161.332 21.5102V29.4747H163.782C165.146 29.5955 166.508 29.2145 167.611 28.4032C168.028 27.9819 168.352 27.4782 168.563 26.9245C168.774 26.3707 168.868 25.779 168.837 25.1872C168.838 24.608 168.715 24.0353 168.478 23.5071C168.24 22.9789 167.893 22.5074 167.459 22.1238C166.528 21.6001 165.456 21.3858 164.395 21.5117H161.332V21.5102ZM153.674 42.9524V39.889H156.585V21.5102H153.674V18.4468H165.475C167.512 18.28 169.55 18.7624 171.296 19.8251C172.057 20.4556 172.66 21.2544 173.059 22.1582C173.458 23.0621 173.641 24.0462 173.593 25.033C173.656 26.5469 173.135 28.0271 172.137 29.1674C171.14 30.3077 169.742 31.021 168.233 31.1598C171.144 31.4666 171.603 32.5381 172.215 35.1421L173.593 39.8906H175.584V42.954H169.457C168.691 40.6568 167.772 34.9894 166.241 33.3043C165.475 32.5381 164.556 32.6923 163.637 32.6923H161.34V39.8906H164.251V42.954L153.674 42.9524Z" fill="#071D49"/>
<path d="M187.982 39.889C189.279 40.0435 190.587 39.7165 191.658 38.9701C192.107 38.5659 192.462 38.0689 192.7 37.5136C192.938 36.9583 193.053 36.358 193.036 35.7541C193.059 35.1344 192.932 34.5183 192.665 33.9583C192.399 33.3984 192.001 32.9111 191.505 32.5381C190.405 32.0273 189.19 31.8162 187.982 31.926H184.919V39.8906L187.982 39.889ZM184.766 21.5102V28.8611H187.523C188.798 28.994 190.083 28.7262 191.198 28.0948C191.976 27.2628 192.413 26.1699 192.424 25.0314C192.489 24.3709 192.348 23.7064 192.018 23.1302C191.689 22.5539 191.189 22.0944 190.586 21.8154C189.338 21.4856 188.041 21.3817 186.757 21.5086L184.766 21.5102ZM189.667 18.4468C191.561 18.2617 193.459 18.7497 195.028 19.8251C195.684 20.425 196.202 21.1604 196.546 21.9803C196.89 22.8002 197.052 23.685 197.02 24.5736C197.126 25.951 196.688 27.3151 195.801 28.3738C194.913 29.4325 193.646 30.1016 192.271 30.2378C193.791 30.3496 195.205 31.0552 196.208 32.2017C197.211 33.3483 197.723 34.8438 197.632 36.3646C197.644 37.5271 197.337 38.6707 196.742 39.6698C196.148 40.669 195.289 41.4851 194.262 42.0288C192.315 42.7919 190.22 43.106 188.135 42.9477H177.261V39.889H180.018V21.5102H177.261V18.4468H189.667Z" fill="#071D49"/>
<path d="M199.776 42.9524V39.889H202.687V21.5102H199.776V18.4468H211.105V21.5102H207.429V39.889H214.628V34.2248H218.763V42.9555L199.776 42.9524Z" fill="#071D49"/>
<path d="M242.201 18.4452H243.887V27.0233H242.201C242.044 22.5817 239.291 19.6709 235.156 19.6709C230.255 19.6709 226.425 23.3463 226.425 30.6988C226.425 38.0513 230.255 41.7267 234.849 41.7267C239.443 41.7267 242.201 38.6633 242.201 34.069V32.3839H238.219V31.0056H246.95V32.3839H244.039V42.9524H242.201V38.9701H242.044C241.278 41.5741 237.909 43.2592 234.998 43.2592C227.8 43.2592 224.277 37.4376 224.277 30.5462C224.277 23.8073 227.8 17.8331 235.151 17.8331C236.587 17.7197 238.023 18.057 239.258 18.7982C240.494 19.5394 241.467 20.6475 242.043 21.968V18.4452H242.201Z" fill="#071D49"/>
<path d="M248.328 41.5741H251.085V26.7165H248.328V25.3382H252.922V28.5543C253.198 27.5327 253.792 26.6256 254.618 25.9646C255.444 25.3037 256.46 24.9233 257.517 24.8788C257.976 24.8788 258.283 24.8788 258.436 25.0362V26.7165C258.278 26.7165 257.824 26.5592 257.669 26.5592C254.453 26.5592 252.921 29.3158 252.921 32.9912V41.5678H256.291V42.9461H248.328V41.5741Z" fill="#071D49"/>
<path d="M267.627 42.0288C270.843 42.0288 273.292 39.118 273.292 34.2169C273.292 29.9278 271.454 26.405 267.627 26.405C264.411 26.405 261.963 29.3158 261.963 34.2169C261.806 38.506 263.801 42.0288 267.627 42.0288ZM267.627 24.8788C272.835 24.8788 275.132 28.7085 275.132 34.2216C275.132 39.5822 272.222 43.5644 267.627 43.5644C262.879 43.5644 260.122 39.7348 260.122 34.2216C259.965 28.7148 262.879 24.8788 267.627 24.8788Z" fill="#071D49"/>
<path d="M276.821 25.3382H281.263V36.9814C281.263 40.5042 282.641 42.0351 285.245 42.0351C287.849 42.0351 289.839 39.5838 289.839 35.6031V26.7165H287.083V25.3382H291.677V41.5741H294.434V42.9524H289.839V40.0416C289.427 41.0735 288.705 41.952 287.772 42.5557C286.839 43.1594 285.741 43.4585 284.631 43.4118C280.956 43.4118 279.271 41.2673 279.271 36.8256V26.7165H276.664V25.3382H276.821Z" fill="#071D49"/>
<path d="M305.304 26.2571C301.169 26.2571 299.797 30.392 299.797 34.3742C299.797 40.1958 302.86 41.8793 305.304 41.8793C309.134 41.8793 310.968 38.3565 310.968 34.0674C310.968 29.7784 308.978 26.2571 305.304 26.2571ZM295.502 25.3367H300.096V28.5558C300.528 27.3781 301.326 26.3703 302.374 25.6808C303.422 24.9913 304.664 24.6566 305.916 24.7262C308.827 24.7262 312.962 26.5639 312.962 34.069C312.962 39.4296 310.51 43.4118 305.916 43.4118C304.703 43.4808 303.498 43.1812 302.459 42.5524C301.42 41.9236 300.596 40.9951 300.094 39.889V47.0873H302.851V48.4656H295.502V47.0873H298.258V26.7165H295.502V25.3367Z" fill="#071D49"/>
<path opacity="0.25" d="M74.7969 15.536V47.0873" stroke="#071D49" stroke-width="1.061"/>
<path d="M57.949 39.7348V42.7982H53.8141C51.5752 42.8049 49.425 41.9233 47.8352 40.3469C47.0412 39.5388 46.4156 38.5812 45.9948 37.5294C45.574 36.4776 45.3663 35.3527 45.3838 34.2201V15.536H48.4535V34.2216C48.44 35.649 48.9882 37.0244 49.9797 38.0513C50.4575 38.5932 51.0476 39.0247 51.7089 39.3157C52.3702 39.6067 53.087 39.7502 53.8094 39.7364L57.949 39.7348ZM53.8141 44.0239H57.949V47.0873H53.8141C51.5387 47.0647 49.3119 46.4262 47.3702 45.2397C45.4285 44.0532 43.8444 42.3629 42.7862 40.3484C41.7279 42.3629 40.1439 44.0532 38.2022 45.2397C36.2605 46.4262 34.0336 47.0647 31.7582 47.0873C28.3527 47.0261 25.1085 45.6252 22.7288 43.1884C20.3491 40.7515 19.0256 37.475 19.0452 34.069V28.7085H16.7496C16.0297 28.7098 15.3179 28.8601 14.6588 29.1499C13.9997 29.4396 13.4077 29.8625 12.92 30.392C11.9518 31.4341 11.4061 32.7993 11.3891 34.2216V46.4752H8.32567V34.2216C8.30796 33.0891 8.5154 31.9642 8.93594 30.9125C9.35648 29.8607 9.98175 28.903 10.7754 28.0948C12.3653 26.5184 14.5154 25.6368 16.7543 25.6435H19.0468V24.2668H16.7496C15.4613 24.2831 14.1889 24.554 13.0056 25.0639C11.8223 25.5737 10.7515 26.3125 9.85474 27.2376C8.95797 28.1627 8.25293 29.256 7.78017 30.4546C7.30741 31.6532 7.07625 32.9334 7.1 34.2216V46.4752H4.0366V34.2216C4.01352 32.5311 4.32436 30.8527 4.95127 29.2826C5.57819 27.7124 6.50887 26.2815 7.68993 25.0718C8.871 23.862 10.2792 22.8974 11.8339 22.233C13.3885 21.5686 15.0591 21.2177 16.7496 21.2002H19.0468V15.536H22.1102V34.2216C22.0939 35.4991 22.3314 36.7671 22.809 37.952C23.2866 39.137 23.9947 40.2153 24.8923 41.1245C25.7899 42.0336 26.8591 42.7554 28.0378 43.2481C29.2166 43.7408 30.4814 43.9945 31.759 43.9945C33.0366 43.9945 34.3015 43.7408 35.4802 43.2481C36.659 42.7554 37.7282 42.0336 38.6258 41.1245C39.5234 40.2153 40.2315 39.137 40.7091 37.952C41.1867 36.7671 41.4242 35.4991 41.4079 34.2216C41.429 32.9414 41.1949 31.6698 40.7193 30.481C40.2438 29.2922 39.5362 28.21 38.638 27.2976C37.7397 26.3851 36.6688 25.6607 35.4876 25.1665C34.3064 24.6724 33.0386 24.4184 31.7582 24.4194H26.3977V25.6451H31.6056C33.8445 25.6384 35.9947 26.5199 37.5845 28.0964C38.3785 28.9044 39.0041 29.8621 39.4249 30.9139C39.8457 31.9656 40.0534 33.0905 40.0359 34.2232C40.0534 35.3559 39.8457 36.4808 39.4249 37.5325C39.0041 38.5843 38.3785 39.542 37.5845 40.35C35.9947 41.9265 33.8445 42.808 31.6056 42.8013C29.3667 42.808 27.2165 41.9265 25.6267 40.35C24.8327 39.542 24.2072 38.5843 23.7864 37.5325C23.3656 36.4808 23.1579 35.3559 23.1754 34.2232V15.536H26.2388V21.2002H31.5993C33.4123 21.1906 35.2048 21.5841 36.847 22.3523C38.4892 23.1205 39.9401 24.2441 41.0948 25.6419V15.536H44.1582V34.2216C44.1418 36.801 45.1492 39.2816 46.9594 41.1192C48.7696 42.9568 51.2347 44.0014 53.8141 44.0239ZM26.2451 28.7085V34.2153C26.2328 35.6434 26.7827 37.0189 27.776 38.045C28.2538 38.5869 28.8438 39.0184 29.5052 39.3094C30.1665 39.6004 30.8832 39.7439 31.6056 39.7301C32.3257 39.7285 33.0376 39.578 33.6966 39.288C34.3557 38.998 34.9476 38.5748 35.4353 38.045C36.4034 37.0028 36.9492 35.6377 36.9662 34.2153C36.9784 32.7873 36.4285 31.4118 35.4353 30.3857C34.9476 29.8559 34.3557 29.4327 33.6966 29.1427C33.0376 28.8527 32.3257 28.7022 31.6056 28.7006L26.2451 28.7085Z" fill="#0086D6"/>
</g>
</g>
<defs>
<clipPath id="clip0_1_10">
<rect width="317" height="64" fill="white"/>
</clipPath>
<clipPath id="clip1_1_10">
<rect width="308.927" height="32.928" fill="white" transform="translate(4.03662 15.536)"/>
</clipPath>
</defs>
</svg>
