<svg width="50" height="33" viewBox="0 0 50 33" fill="none" xmlns="http://www.w3.org/2000/svg">
<path d="M9.97506 32.5C6.48379 32.5 3.94846 31.8083 2.36908 30.4249C0.789692 28.9687 0 27.0392 0 24.6365V21.7969C0 17.6468 1.12219 13.715 3.36658 10.0017C5.61097 6.21558 8.64505 3.04835 12.4688 0.5H23.192C20.532 2.6843 18.2461 4.905 16.3342 7.16211C14.5054 9.34641 13.1338 11.7855 12.2195 14.4795C17.3732 15.1348 19.9501 17.5739 19.9501 21.7969V24.6365C19.9501 27.0392 19.1604 28.9687 17.581 30.4249C16.0017 31.8083 13.4663 32.5 9.97506 32.5ZM36.783 32.5C33.2918 32.5 30.7564 31.8083 29.1771 30.4249C27.5977 28.9687 26.808 27.0392 26.808 24.6365V21.7969C26.808 17.6468 27.9302 13.715 30.1746 10.0017C32.419 6.21558 35.453 3.04835 39.2768 0.5H50C47.34 2.6843 45.054 4.905 43.1421 7.16211C41.3134 9.34641 39.9418 11.7855 39.0274 14.4795C44.1812 15.1348 46.7581 17.5739 46.7581 21.7969V24.6365C46.7581 27.0392 45.9684 28.9687 44.389 30.4249C42.8096 31.8083 40.2743 32.5 36.783 32.5Z" fill="url(#paint0_linear_3229_10521)"/>
<defs>
<linearGradient id="paint0_linear_3229_10521" x1="17.4242" y1="24.119" x2="31.82" y2="25.6258" gradientUnits="userSpaceOnUse">
<stop stop-color="#71D9E0"/>
<stop offset="1" stop-color="#FF994F"/>
</linearGradient>
</defs>
</svg>
