<svg width="56" height="56" viewBox="0 0 56 56" fill="none" xmlns="http://www.w3.org/2000/svg">
<circle opacity="0.05" cx="28" cy="28" r="28" fill="black"/>
<path fill-rule="evenodd" clip-rule="evenodd" d="M28.3348 20.5485C28.4431 20.4451 28.5718 20.363 28.7135 20.307C28.8551 20.251 29.007 20.2222 29.1604 20.2222C29.3138 20.2222 29.4657 20.251 29.6074 20.307C29.749 20.363 29.8777 20.4451 29.986 20.5485L36.9829 27.2137C37.0915 27.3169 37.1777 27.4395 37.2365 27.5745C37.2953 27.7094 37.3255 27.8541 37.3255 28.0002C37.3255 28.1464 37.2953 28.291 37.2365 28.426C37.1777 28.561 37.0915 28.6835 36.9829 28.7867L29.986 35.4519C29.7671 35.6605 29.4701 35.7777 29.1604 35.7777C28.8507 35.7777 28.5538 35.6605 28.3348 35.4519C28.1158 35.2434 27.9928 34.9604 27.9928 34.6655C27.9928 34.3705 28.1158 34.0875 28.3348 33.879L34.5084 28.0002L28.3348 22.1215C28.2262 22.0183 28.14 21.8957 28.0812 21.7608C28.0224 21.6258 27.9922 21.4811 27.9922 21.335C27.9922 21.1889 28.0224 21.0442 28.0812 20.9093C28.14 20.7743 28.2262 20.6517 28.3348 20.5485Z" fill="#E99A53"/>
<path fill-rule="evenodd" clip-rule="evenodd" d="M18.6641 28.0001C18.6641 27.5876 18.7842 27.1919 18.9982 26.9002C19.2121 26.6085 19.5023 26.4446 19.8048 26.4446H34.6344C34.937 26.4446 35.2271 26.6085 35.4411 26.9002C35.655 27.1919 35.7752 27.5876 35.7752 28.0001C35.7752 28.4127 35.655 28.8084 35.4411 29.1001C35.2271 29.3918 34.937 29.5557 34.6344 29.5557H19.8048C19.5023 29.5557 19.2121 29.3918 18.9982 29.1001C18.7842 28.8084 18.6641 28.4127 18.6641 28.0001Z" fill="#E99A53"/>
</svg>
