<svg xmlns="http://www.w3.org/2000/svg" viewBox="0 0 94 122"><path fill="#fff" d="M8.1 89.9 47.6 110l38-20.1V11.3H8.1z"></path><path fill="#f2f3f2" d="M86.4 11.6 7.3 91.3l41 20.3 38.1-19.5z"></path><path fill="#dcdedc" d="M5.5 37.5v54.1l1.4.7 39.5 20.1 1.2.6 1.2-.6 38.1-20.1 1.4-.7V8.7H5.5v28.8zm2.6 52.6V11.3h77.6v78.8l-38.1 20.1L8.1 90.1z"></path><path fill="#ff492c" d="M46.9 12.6c.4 0 .8 0 1.2.1L46.9 15c-1.8-.1-3.4 1.3-3.5 3.1-.1 1.8 1.3 3.4 3.1 3.5h.4c.8 0 1.6-.3 2.2-.8l1.3 2.2c-1 .7-2.2 1.1-3.5 1.1-3.2.1-5.9-2.3-6-5.5-.1-3.2 2.3-5.9 5.5-6h.5zm4.1 4.9 1.5 2.5-1.5 2.4-1.4-2.4h-2.9l1.5-2.5H51zm-2.4-.9c0-.4.1-.8.3-1.1.2-.3.6-.6.9-.8l.2-.1c.4-.2.5-.3.5-.5s-.3-.4-.5-.4c-.4 0-.7.2-.9.6l-.5-.5c.1-.2.3-.4.5-.6.3-.2.6-.2.9-.2.3 0 .7.1.9.3.2.2.4.5.4.8 0 .5-.3.9-.9 1.1l-.3.2c-.3.2-.5.3-.6.6h1.8v.7l-2.7-.1zm-1.7 12.5 9.5-5.4v-15H37.3v14.9l9.6 5.5z"></path><path fill="#23cca2" d="M90.2 64.5H3.6l-3.2 7 3.2 7h86.6l3.1-7z"></path><path fill="#252530" d="M18.69 60q-.12 0-.17-.11l-1.5-3.32q-.02-.05-.07-.05h-1.12q-.06 0-.06.06v3.28q0 .06-.04.1-.04.04-.1.04h-1.4q-.06 0-.11-.04-.04-.04-.04-.1v-8.12q0-.06.04-.1.05-.04.11-.04h3.43q.77 0 1.35.31.58.31.9.89.32.58.32 1.33 0 .82-.41 1.4t-1.14.82q-.06.03-.04.09l1.63 3.39q.03.05.03.07 0 .1-.13.1h-1.48Zm-2.86-6.95q-.06 0-.06.06v2.05q0 .06.06.06h1.58q.5 0 .82-.3.32-.3.32-.78 0-.48-.32-.78-.32-.31-.82-.31h-1.58Zm10.89 3.23q.07.46.05 1.02-.02.14-.16.14H22.9q-.07 0-.05.06.04.24.14.48.31.68 1.27.68.77-.02 1.21-.63.05-.07.11-.07.03 0 .08.05l.87.85q.06.06.06.11 0 .02-.05.09-.4.5-1.02.77-.63.27-1.37.27-1.03 0-1.75-.47-.71-.47-1.02-1.31-.25-.6-.25-1.57 0-.66.18-1.17.27-.85.96-1.35.69-.51 1.64-.51 1.2 0 1.93.7.72.7.88 1.86Zm-2.8-1.09q-.75 0-.99.71-.05.15-.09.38 0 .06.06.06h2.08q.07 0 .05-.06-.06-.35-.06-.34-.11-.36-.38-.55-.27-.2-.67-.2ZM27.95 60q-.06 0-.1-.04-.04-.04-.04-.1v-8.12q0-.06.04-.1.04-.04.1-.04h1.41q.06 0 .1.04.04.04.04.1v8.12q0 .06-.04.1-.04.04-.1.04h-1.41Zm5.25-6.26q.78 0 1.39.27.61.27.95.73.35.47.35 1.05v4.07q0 .06-.05.1-.04.04-.1.04h-1.4q-.06 0-.1-.04-.05-.04-.05-.1v-.4q0-.04-.02-.05-.02-.01-.05.03-.5.66-1.62.66-.93 0-1.51-.46t-.58-1.34q0-.93.65-1.44.65-.51 1.85-.51h1.22q.06 0 .06-.06v-.26q0-.4-.24-.62-.24-.22-.72-.22-.37 0-.61.13-.25.13-.32.37-.04.13-.16.12l-1.45-.19q-.14-.02-.13-.11.05-.5.4-.91.35-.41.94-.64.58-.22 1.3-.22Zm-.24 5.1q.51 0 .87-.28t.36-.71v-.43q0-.06-.06-.06h-.86q-.54 0-.85.2-.3.21-.3.58 0 .32.23.51.22.19.61.19Zm7.52-3.8q0 .06-.04.11-.04.04-.1.04h-1.15q-.06 0-.06.06v2.54q0 .4.16.59.16.19.52.19h.4q.06 0 .1.04.04.05.04.11v1.14q0 .13-.14.15-.51.03-.72.03-1 0-1.49-.33t-.51-1.25v-3.21q0-.06-.06-.06h-.68q-.06 0-.1-.04-.04-.05-.04-.11v-1.06q0-.06.04-.11.04-.04.1-.04h.68q.06 0 .06-.06v-1.43q0-.06.05-.1.04-.04.1-.04h1.34q.06 0 .1.04.05.04.05.1v1.43q0 .06.06.06h1.15q.06 0 .1.04.04.05.04.11v1.06Zm1.93-1.9q-.4 0-.67-.27t-.27-.68q0-.42.26-.69.26-.26.68-.26.42 0 .69.26.26.27.26.69 0 .41-.27.68-.27.27-.68.27ZM41.69 60q-.06 0-.1-.04-.04-.04-.04-.1v-5.9q0-.06.04-.1.04-.04.1-.04h1.41q.06 0 .1.04.04.04.04.1v5.9q0 .06-.04.1-.04.04-.1.04h-1.41Zm5.6.1q-1.01 0-1.73-.53t-.99-1.44q-.16-.57-.16-1.23 0-.7.16-1.27.28-.89 1-1.39.72-.5 1.73-.5.98 0 1.68.49.69.5.98 1.39.19.6.19 1.26 0 .65-.16 1.21-.27.94-.98 1.47-.72.54-1.72.54Zm0-1.46q.39 0 .67-.24.27-.24.39-.66.1-.38.1-.84 0-.5-.1-.85-.13-.41-.4-.63-.28-.23-.68-.23t-.67.23q-.27.22-.39.63-.1.29-.1.85 0 .54.08.84.12.42.41.66.28.24.69.24Zm7.17-4.9q.96 0 1.55.58.59.59.59 1.6v3.94q0 .06-.04.1-.05.04-.11.04h-1.4q-.06 0-.1-.04-.04-.04-.04-.1v-3.59q0-.48-.27-.78-.27-.3-.72-.3-.44 0-.71.3-.27.3-.27.78v3.59q0 .06-.04.1-.05.04-.11.04h-1.4q-.06 0-.1-.04-.04-.04-.04-.1v-5.88q0-.06.04-.11.04-.04.1-.04h1.4q.06 0 .11.04.04.05.04.11v.42q0 .03.02.04.03.02.04-.01.49-.69 1.46-.69Zm5.81 6.34q-.8 0-1.4-.22-.6-.23-.93-.64-.33-.41-.33-.92v-.12q0-.06.04-.11.04-.04.1-.04h1.33q.06 0 .1.04.05.05.05.11v.01q0 .26.29.45.29.18.74.18.41 0 .66-.16.25-.16.25-.4 0-.22-.22-.32-.21-.11-.7-.23-.57-.15-.89-.28-.77-.26-1.23-.65-.45-.38-.45-1.1 0-.89.69-1.41.69-.52 1.83-.52.77 0 1.34.24.58.25.9.69.31.45.31 1.01 0 .06-.04.1-.04.05-.1.05h-1.28q-.06 0-.11-.05-.04-.04-.04-.1 0-.26-.27-.44t-.71-.18q-.4 0-.65.14-.25.15-.25.4 0 .24.24.36.25.12.83.25.13.04.3.08.16.04.36.1.85.25 1.34.65.49.39.49 1.15 0 .89-.7 1.39-.7.49-1.89.49Zm6.78-6.34q.96 0 1.55.58.59.59.59 1.6v3.94q0 .06-.05.1-.04.04-.1.04h-1.4q-.06 0-.1-.04-.05-.04-.05-.1v-3.59q0-.48-.27-.78-.27-.3-.71-.3-.44 0-.71.3-.27.3-.27.78v3.59q0 .06-.05.1-.04.04-.1.04h-1.4q-.06 0-.1-.04-.05-.04-.05-.1v-8.12q0-.06.05-.1.04-.04.1-.04h1.4q.06 0 .1.04.05.04.05.1v2.66q0 .03.02.04.02.02.04-.01.49-.69 1.46-.69Zm4.26-.6q-.41 0-.68-.27-.27-.27-.27-.68 0-.42.27-.69.26-.26.68-.26.42 0 .68.26.27.27.27.69 0 .41-.27.68-.27.27-.68.27ZM70.59 60q-.06 0-.1-.04-.04-.04-.04-.1v-5.9q0-.06.04-.1.04-.04.1-.04h1.4q.06 0 .11.04.04.04.04.1v5.9q0 .06-.04.1-.05.04-.11.04h-1.4Zm8.38-4.51q.21.61.21 1.44t-.23 1.5q-.27.77-.87 1.22-.59.45-1.47.45-.86 0-1.34-.6-.02-.04-.05-.03-.02.01-.02.05v2.57q0 .06-.04.1-.05.04-.11.04h-1.4q-.06 0-.1-.04-.04-.04-.04-.1v-8.11q0-.06.04-.11.04-.04.1-.04h1.4q.06 0 .11.04.04.05.04.11v.39q0 .04.02.04.03.01.05-.01.5-.66 1.39-.66.83 0 1.44.46.6.46.87 1.29Zm-1.84 2.69q.3-.47.3-1.28 0-.75-.25-1.2-.28-.51-.89-.51-.55 0-.83.51-.25.44-.25 1.22 0 .8.26 1.24.28.48.82.48.54 0 .84-.46ZM39.94 43.62q-.07.04 0 .07 1.14.59 1.14 1.96 0 1.16-.79 1.76-.79.59-2.08.59h-3.1q-.06 0-.11-.04-.04-.04-.04-.1v-8.12q0-.06.04-.1.05-.04.11-.04h3.01q2.84 0 2.84 2.3 0 1.2-1.02 1.72Zm-3.23-2.57q-.06 0-.06.06v1.87q0 .06.06.06h1.41q.56 0 .87-.26.32-.26.32-.72 0-.47-.32-.74-.31-.27-.87-.27h-1.41Zm1.5 5.49q.56 0 .87-.29.31-.28.31-.77t-.31-.77q-.31-.29-.88-.29h-1.49q-.06 0-.06.06v2q0 .06.06.06h1.5Zm9.54-2.26q.08.46.05 1.02-.01.14-.15.14h-3.71q-.07 0-.05.06.04.24.13.48.31.68 1.27.68.77-.02 1.22-.63.04-.07.1-.07.04 0 .09.05l.86.85q.06.06.06.11 0 .02-.05.09-.39.5-1.02.77-.62.27-1.36.27-1.04 0-1.75-.47t-1.03-1.31q-.25-.6-.25-1.57 0-.66.18-1.17.28-.85.97-1.35.69-.51 1.64-.51 1.2 0 1.92.7.73.7.88 1.86Zm-2.79-1.09q-.76 0-1 .71-.05.15-.08.38 0 .06.06.06h2.07q.08 0 .05-.06-.06-.35-.06-.34-.11-.36-.38-.55-.27-.2-.66-.2Zm6.26 4.89q-.8 0-1.4-.22-.6-.23-.93-.64-.33-.41-.33-.92v-.12q0-.06.04-.11.04-.04.1-.04h1.33q.06 0 .11.04.04.05.04.11v.01q0 .26.29.45.3.18.74.18.41 0 .66-.16.25-.16.25-.4 0-.22-.21-.32-.22-.11-.71-.23-.57-.15-.89-.28-.77-.26-1.22-.65-.46-.38-.46-1.1 0-.89.69-1.41.69-.52 1.83-.52.77 0 1.34.24.58.25.9.69.32.45.32 1.01 0 .06-.05.1-.04.05-.1.05h-1.28q-.06 0-.1-.05-.05-.04-.05-.1 0-.26-.27-.44t-.71-.18q-.4 0-.65.14-.25.15-.25.4 0 .24.25.36.24.12.82.25.13.04.3.08.17.04.36.1.85.25 1.34.65.49.39.49 1.15 0 .89-.7 1.39-.7.49-1.89.49Zm7.09-5.04q0 .06-.04.11-.04.04-.1.04h-1.15q-.06 0-.06.06v2.54q0 .4.16.59.16.19.52.19h.4q.06 0 .1.04.04.05.04.11v1.14q0 .13-.14.15-.51.03-.72.03-1 0-1.49-.33t-.5-1.25v-3.21q0-.06-.06-.06h-.69q-.06 0-.1-.04-.04-.05-.04-.11v-1.06q0-.06.04-.11.04-.04.1-.04h.69q.06 0 .06-.06v-1.43q0-.06.04-.1.04-.04.1-.04h1.34q.06 0 .11.04.04.04.04.1v1.43q0 .06.06.06h1.15q.06 0 .1.04.04.05.04.11v1.06Z"></path><path fill="#242530" d="M16.9 75.48q-.78 0-1.36-.25-.58-.25-.9-.7-.31-.45-.31-1.06v-.25q0-.05.04-.09.03-.03.08-.03h.89q.05 0 .09.03.03.04.03.09v.19q0 .46.41.76.41.31 1.12.31.61 0 .92-.26.31-.26.31-.67 0-.28-.17-.48-.17-.19-.48-.35-.32-.16-.95-.4-.71-.26-1.15-.49-.44-.23-.73-.63-.3-.39-.3-.98 0-.88.64-1.39.64-.51 1.71-.51.75 0 1.33.26.57.26.89.73.32.46.32 1.07v.17q0 .05-.04.09-.03.03-.08.03h-.9q-.05 0-.08-.03-.04-.04-.04-.09v-.11q0-.47-.38-.79-.39-.33-1.07-.33-.55 0-.85.23-.31.23-.31.65 0 .3.16.49t.48.34q.32.16.99.4.71.27 1.14.49.42.22.73.61.3.4.3.99 0 .9-.67 1.43-.66.53-1.81.53Zm9.01-5.27q.77 0 1.21.46.43.47.43 1.3v3.31q0 .05-.03.08-.04.04-.09.04h-.91q-.05 0-.08-.04-.04-.03-.04-.08v-3.07q0-.46-.24-.73-.25-.27-.66-.27-.41 0-.67.27-.26.27-.26.72v3.08q0 .05-.03.08-.04.04-.09.04h-.91q-.05 0-.09-.04-.03-.03-.03-.08v-3.07q0-.46-.25-.73-.25-.27-.66-.27-.38 0-.63.22-.24.22-.28.6v3.25q0 .05-.03.08-.04.04-.09.04h-.92q-.05 0-.08-.04-.04-.03-.04-.08v-4.87q0-.05.04-.09.03-.03.08-.03h.92q.05 0 .09.03.03.04.03.09v.33q0 .03.02.04.02.01.04-.02.22-.28.54-.41.33-.14.73-.14.49 0 .86.2t.57.58q.03.04.07 0 .22-.4.61-.59.39-.19.87-.19Zm4.77 0q.63 0 1.11.22.48.22.74.6.26.39.26.88v3.37q0 .05-.03.08-.04.04-.09.04h-.92q-.05 0-.08-.04-.04-.03-.04-.08v-.32q0-.03-.02-.04-.02 0-.04.02-.49.54-1.42.54-.75 0-1.23-.38-.49-.38-.49-1.13 0-.78.55-1.22.54-.43 1.53-.43h1.07q.05 0 .05-.05v-.24q0-.39-.23-.61-.23-.21-.69-.21-.38 0-.61.14-.24.13-.3.37-.03.12-.14.1l-.97-.12q-.05-.01-.08-.03-.04-.03-.03-.07.08-.61.66-1 .57-.39 1.44-.39Zm-.24 4.35q.49 0 .84-.26t.35-.66v-.47q0-.05-.05-.05h-.84q-.53 0-.83.2-.31.2-.31.57 0 .32.24.49.23.18.6.18Zm3.63.84q-.05 0-.08-.04-.04-.03-.04-.08v-6.76q0-.05.04-.08.03-.04.08-.04h.92q.05 0 .09.04.03.03.03.08v6.76q0 .05-.03.08-.04.04-.09.04h-.92Zm2.39 0q-.05 0-.08-.04-.04-.03-.04-.08v-6.76q0-.05.04-.08.03-.04.08-.04h.92q.05 0 .09.04.03.03.03.08v6.76q0 .05-.03.08-.04.04-.09.04h-.92Zm8.29-3.65q-.06.03 0 .06 1.02.48 1.02 1.65 0 .95-.63 1.45-.64.49-1.66.49h-2.52q-.05 0-.08-.04-.04-.03-.04-.08v-6.76q0-.05.04-.08.03-.04.08-.04h2.44q1.09 0 1.68.47.59.47.59 1.42 0 1.05-.92 1.46Zm-2.7-2.35q-.05 0-.05.05v1.85q0 .05.05.05h1.35q.53 0 .84-.25.3-.26.3-.71 0-.46-.3-.73-.31-.26-.84-.26h-1.35Zm1.43 4.99q.52 0 .83-.28.3-.28.3-.76 0-.49-.31-.76-.31-.28-.84-.28h-1.41q-.05 0-.05.05v1.98q0 .05.05.05h1.43Zm6.4-3.98q0-.05.03-.09.04-.03.09-.03h.91q.05 0 .09.03.03.04.03.09v4.87q0 .05-.03.08-.04.04-.09.04H50q-.05 0-.09-.04-.03-.03-.03-.08v-.32q0-.03-.02-.04-.02-.01-.04.02-.41.53-1.23.53-.76 0-1.27-.44-.52-.44-.52-1.25v-3.37q0-.05.03-.09.04-.03.09-.03h.92q.05 0 .09.03.03.04.03.09v3.04q0 .47.25.75.24.28.68.28.45 0 .72-.28.27-.28.27-.75v-3.04Zm4.29 5.05q-.63 0-1.11-.19-.47-.18-.73-.51-.26-.32-.26-.72v-.09q0-.05.03-.09.04-.03.09-.03h.88q.05 0 .08.03.04.04.04.09v.02q0 .25.27.44.28.18.7.18.4 0 .65-.16.25-.17.25-.42 0-.23-.21-.35-.2-.11-.66-.24l-.38-.12q-.51-.15-.86-.32t-.59-.47q-.24-.29-.24-.75 0-.7.55-1.11.55-.42 1.45-.42.61 0 1.07.19.46.2.71.54.25.35.25.79 0 .05-.04.09-.03.03-.08.03h-.85q-.05 0-.09-.03-.03-.04-.03-.09 0-.26-.26-.43-.25-.18-.69-.18-.39 0-.64.14-.24.15-.24.41 0 .24.23.36.24.13.79.28l.22.06q.53.16.89.32.36.17.61.46.25.3.25.77 0 .71-.56 1.11-.56.41-1.49.41Zm3.69-5.87q-.31 0-.51-.2t-.2-.51q0-.31.2-.51t.51-.2q.31 0 .51.2t.2.51q0 .31-.2.51t-.51.2Zm-.48 5.81q-.05 0-.09-.04-.03-.03-.03-.08V70.4q0-.05.03-.08.04-.04.09-.04h.92q.05 0 .08.04.04.03.04.08v4.88q0 .05-.04.08-.03.04-.08.04h-.92Zm4.82-5.19q.81 0 1.29.48.49.48.49 1.31v3.28q0 .05-.04.08-.03.04-.08.04h-.92q-.05 0-.09-.04-.03-.03-.03-.08v-3.04q0-.46-.26-.75-.26-.28-.69-.28-.43 0-.7.28-.26.28-.26.74v3.05q0 .05-.04.08-.03.04-.08.04h-.92q-.05 0-.09-.04-.03-.03-.03-.08v-4.87q0-.05.03-.09.04-.03.09-.03h.92q.05 0 .08.03.04.04.04.09v.32q0 .03.02.04.02.01.03-.02.41-.54 1.24-.54Zm7.26 2.06q.04.25.04.56l-.01.31q0 .12-.12.12h-3.13q-.05 0-.05.05.03.33.09.45.24.72 1.17.73.68 0 1.08-.56.04-.06.1-.06.04 0 .07.03l.62.51q.09.07.03.16-.31.44-.83.68-.51.24-1.14.24-.78 0-1.33-.35-.54-.35-.79-.98-.23-.54-.23-1.5 0-.58.12-.94.2-.7.75-1.11.56-.4 1.34-.4 1.97 0 2.22 2.06Zm-2.22-1.06q-.37 0-.62.19-.24.18-.34.51-.06.17-.08.44-.02.05.04.05h2.03q.05 0 .05-.05-.02-.25-.06-.38-.09-.36-.36-.56-.26-.2-.66-.2Zm5.14 4.25q-.63 0-1.11-.19-.47-.18-.73-.51-.26-.32-.26-.72v-.09q0-.05.03-.09.04-.03.09-.03h.88q.05 0 .08.03.04.04.04.09v.02q0 .25.27.44.28.18.7.18.4 0 .65-.16.25-.17.25-.42 0-.23-.21-.35-.2-.11-.66-.24l-.38-.12q-.51-.15-.86-.32t-.59-.47q-.24-.29-.24-.75 0-.7.55-1.11.55-.42 1.45-.42.61 0 1.07.19.46.2.71.54.25.35.25.79 0 .05-.04.09-.03.03-.08.03h-.85q-.05 0-.09-.03-.03-.04-.03-.09 0-.26-.26-.43-.25-.18-.69-.18-.39 0-.64.14-.24.15-.24.41 0 .24.23.36.24.13.79.28l.22.06q.53.16.89.32.36.17.61.46.25.3.25.77 0 .71-.56 1.11-.56.41-1.49.41Zm4.83 0q-.63 0-1.11-.19-.47-.18-.73-.51-.26-.32-.26-.72v-.09q0-.05.03-.09.04-.03.09-.03h.88q.05 0 .08.03.04.04.04.09v.02q0 .25.27.44.28.18.7.18.4 0 .65-.16.25-.17.25-.42 0-.23-.21-.35-.2-.11-.66-.24l-.38-.12q-.51-.15-.86-.32t-.59-.47q-.24-.29-.24-.75 0-.7.55-1.11.55-.42 1.45-.42.61 0 1.07.19.46.2.71.54.25.35.25.79 0 .05-.04.09-.03.03-.08.03h-.85q-.05 0-.09-.03-.03-.04-.03-.09 0-.26-.26-.43-.25-.18-.69-.18-.39 0-.64.14-.24.15-.24.41 0 .24.23.36.24.13.79.28l.22.06q.53.16.89.32.36.17.61.46.25.3.25.77 0 .71-.56 1.11-.56.41-1.49.41Z"></path><path fill="#252530" d="M33.15 89.58q-.8 0-1.4-.26-.6-.25-.92-.73-.33-.47-.33-1.1v-.22q0-.05.04-.08.03-.04.08-.04h1.14q.05 0 .09.04.03.03.03.08v.15q0 .4.37.67.37.28 1 .28.53 0 .79-.22.26-.23.26-.56 0-.24-.16-.4-.16-.17-.44-.29-.27-.13-.87-.35-.67-.23-1.14-.47-.46-.24-.77-.66-.32-.41-.32-1.02 0-.6.31-1.05.31-.45.86-.69.55-.24 1.27-.24.76 0 1.35.27.6.27.94.76.33.48.33 1.12v.15q0 .05-.03.08-.04.04-.09.04h-1.15q-.05 0-.08-.04-.04-.03-.04-.08v-.08q0-.42-.34-.72-.35-.29-.95-.29-.47 0-.74.2-.26.2-.26.55 0 .25.16.42.15.17.46.3.3.14.94.37.71.26 1.11.46.41.2.74.59.32.4.32 1.03 0 .94-.69 1.48-.69.55-1.87.55Zm6.44-7.09q.66 0 1.16.27.5.27.78.76.27.5.27 1.14 0 .63-.28 1.11-.29.48-.81.75-.51.26-1.18.26h-1.42q-.05 0-.05.05v2.55q0 .05-.04.08-.03.04-.08.04h-1.17q-.05 0-.09-.04-.03-.03-.03-.08v-6.77q0-.05.03-.09.04-.03.09-.03h2.82Zm-.21 3.16q.46 0 .74-.27.28-.26.28-.69 0-.44-.28-.71-.28-.27-.74-.27h-1.27q-.05 0-.05.05v1.84q0 .05.05.05h1.27Zm7.13 3.85q-.1 0-.14-.09l-1.25-2.77q-.02-.04-.06-.04h-.93q-.05 0-.05.05v2.73q0 .05-.04.08-.03.04-.08.04h-1.17q-.05 0-.09-.04-.03-.03-.03-.08v-6.76q0-.05.03-.08.04-.04.09-.04h2.86q.64 0 1.12.26.49.26.75.74.27.48.27 1.11 0 .68-.34 1.16-.34.49-.95.69-.05.02-.03.07l1.36 2.83q.02.04.02.06 0 .08-.11.08h-1.23Zm-2.38-5.79q-.05 0-.05.05v1.71q0 .05.05.05h1.31q.42 0 .68-.25.27-.25.27-.65t-.27-.66q-.26-.25-.68-.25h-1.31Zm4.8 5.79q-.05 0-.08-.04-.04-.03-.04-.08v-6.76q0-.05.04-.08.03-.04.08-.04h1.17q.05 0 .09.04.03.03.03.08v6.76q0 .05-.03.08-.04.04-.09.04h-1.17Zm6.53-6.88q0-.05.04-.08.03-.04.08-.04h1.17q.05 0 .09.04.03.03.03.08v6.76q0 .05-.03.08-.04.04-.09.04h-1.13q-.1 0-.14-.08l-2.59-4.28q-.02-.03-.04-.02-.02 0-.02.04l.02 4.22q0 .05-.03.08-.04.04-.09.04h-1.17q-.05 0-.08-.04-.04-.03-.04-.08v-6.76q0-.05.04-.08.03-.04.08-.04h1.13q.1 0 .14.08l2.58 4.26q.02.03.04.02.02 0 .02-.04l-.01-4.2Zm5.09 6.96q-.77 0-1.36-.31-.59-.31-.91-.86-.33-.56-.33-1.29v-2.24q0-.73.33-1.29.32-.56.91-.87.59-.3 1.36-.3.76 0 1.35.3.58.3.91.82.32.51.32 1.14v.07q0 .05-.03.08-.04.04-.09.04h-1.17q-.05 0-.08-.04-.04-.03-.04-.08v-.03q0-.46-.32-.77-.32-.32-.85-.32-.54 0-.86.33-.33.34-.33.88v2.32q0 .54.35.87.35.34.89.34.52 0 .83-.28.31-.27.31-.76v-.45q0-.05-.05-.05h-1.12q-.05 0-.08-.04-.04-.03-.04-.08v-.92q0-.05.04-.08.03-.04.08-.04h2.44q.05 0 .09.04.03.03.03.08v1.32q0 .76-.32 1.32t-.9.86q-.59.29-1.36.29ZM37.68 97.63q-.02.02-.01.04t.04.02h2.71q.05 0 .09.03.03.04.03.09v.97q0 .05-.03.08-.04.04-.09.04h-4.5q-.05 0-.09-.04-.03-.03-.03-.08v-.92q0-.09.06-.15.49-.48 1-1.04.51-.57.64-.71.28-.33.57-.63.91-1.01.91-1.5 0-.35-.25-.58-.25-.22-.65-.22t-.65.22q-.25.23-.25.6v.25q0 .05-.04.09-.03.03-.08.03h-1.18q-.05 0-.08-.03-.04-.04-.04-.09v-.47q.03-.54.34-.96.31-.41.82-.63.52-.22 1.16-.22.71 0 1.24.26.52.27.81.72.28.45.28 1 0 .42-.21.86t-.63.95q-.31.39-.67.77-.36.38-1.07 1.1l-.15.15Zm6.11 1.38q-1.1 0-1.74-.62-.64-.61-.64-1.67v-2.64q0-1.04.64-1.65.64-.61 1.74-.61t1.75.61q.64.61.64 1.65v2.64q0 1.06-.64 1.67-.65.62-1.75.62Zm0-1.21q.45 0 .72-.28.26-.27.26-.73v-2.75q0-.46-.26-.73-.27-.28-.72-.28-.44 0-.7.28-.27.27-.27.73v2.75q0 .46.27.73.26.28.7.28Zm5.19-.17q-.02.02-.01.04t.04.02h2.71q.05 0 .09.03.03.04.03.09v.97q0 .05-.03.08-.04.04-.09.04h-4.5q-.05 0-.08-.04-.04-.03-.04-.08v-.92q0-.09.06-.15.49-.48 1-1.04.51-.57.64-.71.28-.33.57-.63.91-1.01.91-1.5 0-.35-.25-.58-.25-.22-.65-.22t-.65.22q-.25.23-.25.6v.25q0 .05-.03.09-.04.03-.09.03h-1.18q-.05 0-.08-.03-.04-.04-.04-.09v-.47q.03-.54.34-.96.31-.41.83-.63.51-.22 1.15-.22.71 0 1.24.26.52.27.81.72.28.45.28 1 0 .42-.21.86t-.63.95q-.31.39-.67.77-.36.38-1.07 1.1l-.15.15Zm8.73-1.78q.05 0 .09.03.03.04.03.09v1.01q0 .05-.03.09-.04.03-.09.03h-.43q-.05 0-.05.05v1.63q0 .05-.03.08-.04.04-.09.04h-1.17q-.05 0-.08-.04-.04-.03-.04-.08v-1.63q0-.05-.05-.05H52.7q-.05 0-.08-.03-.04-.04-.04-.09v-.8q0-.06.03-.15l1.8-4.04q.04-.09.14-.09h1.25q.07 0 .1.04.02.03-.01.1l-1.67 3.75q-.01.02 0 .04t.03.02h1.52q.05 0 .05-.05v-1.24q0-.05.04-.08.03-.04.08-.04h1.17q.05 0 .09.04.03.03.03.08v1.24q0 .05.05.05h.43Z"></path></svg>