<svg width="29" height="24" viewBox="0 0 29 24" fill="none" xmlns="http://www.w3.org/2000/svg">
<g id="brandico:twitter-bird">
<path id="Vector" d="M27 4.36906C26.3038 5.38888 25.4497 6.25824 24.4377 6.97712C24.4477 7.16992 24.4527 7.38783 24.4527 7.63085C24.4527 8.98116 24.2528 10.3331 23.853 11.6867C23.4532 13.0403 22.8425 14.3359 22.0209 15.5735C21.1993 16.8112 20.2207 17.9076 19.0849 18.8629C17.9492 19.8181 16.584 20.5798 14.9893 21.1479C13.3946 21.716 11.6856 22 9.86212 22C7.01631 22 4.39561 21.2434 2 19.7301C2.42519 19.7767 2.83299 19.8 3.22338 19.8C5.60082 19.8 7.72426 19.0789 9.59369 17.6365C8.48519 17.6165 7.49245 17.2804 6.61546 16.6283C5.73848 15.9762 5.13495 15.143 4.8049 14.1286C5.13114 14.1898 5.45312 14.2204 5.77086 14.2204C6.22822 14.2204 6.67825 14.1616 7.12097 14.0441C5.93799 13.8108 4.95662 13.2305 4.17684 12.3033C3.39708 11.3761 3.00721 10.306 3.00721 9.09287V9.03035C3.73332 9.4263 4.50783 9.63691 5.33075 9.66219C4.62997 9.20209 4.07435 8.60209 3.6639 7.86221C3.25343 7.12233 3.04819 6.32166 3.04819 5.46018C3.04819 4.5516 3.27937 3.70555 3.74172 2.92202C5.02818 4.47678 6.587 5.71939 8.41817 6.64986C10.2494 7.58033 12.2139 8.09709 14.3117 8.20013C14.2223 7.83289 14.1774 7.44966 14.1773 7.05044C14.1773 5.65649 14.6782 4.46626 15.6799 3.47976C16.6817 2.49325 17.8903 2 19.3057 2C20.7876 2 22.0358 2.53141 23.0503 3.59422C24.2095 3.3681 25.2948 2.95911 26.3063 2.36724C25.9166 3.57511 25.1657 4.50689 24.0535 5.1626C25.0757 5.04297 26.0579 4.77846 27 4.36906H27Z" fill="white"/>
</g>
</svg>
