<svg width="28" height="28" viewBox="0 0 28 28" fill="none" xmlns="http://www.w3.org/2000/svg">
<path d="M27.4156 7.1242C27.2562 6.51923 26.9437 5.96753 26.5094 5.52432C26.075 5.08111 25.5341 4.76193 24.9406 4.59873C22.7562 4 14 4 14 4C14 4 5.24375 4 3.05937 4.59554C2.46569 4.75821 1.92445 5.07721 1.49002 5.52051C1.05558 5.9638 0.743248 6.51578 0.584375 7.12102C-1.13791e-07 9.35032 0 14 0 14C0 14 -1.13791e-07 18.6497 0.584375 20.8758C0.90625 22.1051 1.85625 23.0732 3.05937 23.4013C5.24375 24 14 24 14 24C14 24 22.7562 24 24.9406 23.4013C26.1469 23.0732 27.0937 22.1051 27.4156 20.8758C28 18.6497 28 14 28 14C28 14 28 9.35032 27.4156 7.1242ZM11.2187 18.2675V9.73248L18.4688 13.9682L11.2187 18.2675Z" fill="white"/>
</svg>
